<svg xmlns="http://www.w3.org/2000/svg" viewBox="0 0 240 40" role="img" aria-labelledby="title"><title>Aliice logo</title><g fill="none" fill-rule="evenodd"><path fill="#156DCC" d="M24 32c-5.523 0-10-4.477-10-10V10h6v12c0 2.21 1.79 4 4 4s4-1.79 4-4V10h6v12c0 5.523-4.477 10-10 10Zm32-1.5c-5.385 0-9.5-4.115-9.5-9.5s4.115-9.5 9.5-9.5 9.5 4.115 9.5 9.5-4.115 9.5-9.5 9.5Zm0-5c2.485 0 4.5-2.015 4.5-4.5S58.485 16.5 56 16.5 51.5 18.515 51.5 21 53.515 25.5 56 25.5Zm17-13.5h6V32h-6V12Zm12 0h6V32h-6V12Zm10 0h18v5h-6v15h-6V17h-6v-5Z"/><circle cx="84" cy="10" r="3" fill="#156DCC"/><circle cx="94" cy="10" r="3" fill="#156DCC"/><path fill="#156DCC" d="M86 18h8c0 3.314-1.79 6-4 6s-4-2.686-4-6Z"/></g></svg>
